# xmcd
#
# Track frame offsets: 
#        150
#        13299
#        25582
#        38566
#        53016
#        69641
#        83756
#        96644
#
# Disc length: 1502 seconds
#
# Revision: 0
# Processed by: cddbd v1.5.2PL0 Copyright (c) Steve Scherf et al.
# Submitted via: ExactAudioCopy v0.99pb5
#
DISCID=5f05dc08
DTITLE=Jess Moskaluke - Kiss me quiet
DYEAR=2015
DGENRE=Country
TTITLE0=Kiss me quiet
TTITLE1=Elevator
TTITLE2=Speed of night
TTITLE3=Take me home
TTITLE4=Lightning bolt
TTITLE5=Good for you
TTITLE6=Kiss me quiet
TTITLE7=Lightning bolt
EXTD=
EXTT0=
EXTT1=
EXTT2=
EXTT3=
EXTT4=
EXTT5=
EXTT6=
EXTT7=
PLAYORDER=
